<svg width="123" height="60" viewBox="0 0 123 60" fill="none" xmlns="http://www.w3.org/2000/svg">
<path d="M122.918 29.5L122.992 29.51L113.559 29.5099L113.5 29.5459C111.836 30.6097 101.272 37.3446 94.1396 41.3929C92.8354 42.133 91.5474 42.8759 90.291 43.6008L90.0337 43.7493L89.937 43.808C87.6172 48.2921 84.2402 52.155 80.1309 55.0767C80.5469 54.9128 80.9639 54.7444 81.3823 54.5717C81.626 54.4712 81.8701 54.3692 82.1147 54.2657C86.2422 52.52 92.23 48.9656 98.5811 45.1955L100.152 44.2633C109.292 38.8449 123 29.5141 123 29.5141L122.992 29.51L122.987 29.5H122.918Z" fill="#4B4B4B"/>
<path d="M68.5 54.01C74.8052 54.01 80.5303 51.5798 84.751 47.6242C79.2812 54.5533 70.7461 59.0099 61.1562 59.0099L60.813 59.01C59.8306 58.9606 57.9985 58.8274 56.6899 58.675C50.7124 57.9786 46.3828 56.6406 40.8853 54.2672C35.2759 51.8452 31.7866 49.7077 27.4116 47.0275C26.0137 46.171 24.5249 45.2591 22.8477 44.2648C13.708 38.8463 0 29.5156 0 29.5156L0.00830078 29.51H9.44092C9.44092 29.51 21.5503 36.8561 29.3027 41.5748C30.5459 42.3318 31.6172 43.004 32.604 43.6236C35.918 45.704 38.2876 47.1914 43.0781 49.3026L43.3896 49.4862L43.4116 49.4489C43.7075 49.5782 44.0127 49.7098 44.3281 49.8441C48.9272 51.8045 51.7305 52.5453 56.6953 53.2115C58.2954 53.4262 59.7632 53.5276 60.813 53.5866V53.5826L61.1562 53.5849L61.4834 53.5828L61.6968 53.5791L61.9487 53.5724L62.2827 53.5597C62.6768 53.5421 63.0684 53.5151 63.4575 53.4792C65.082 53.8268 66.769 54.01 68.5 54.01Z" fill="#4B4B4B"/>
<path d="M45.3433 47.239L44.8354 47.034L44.9365 46.8618C45.0288 46.9493 45.1221 47.0362 45.2153 47.1223L45.3433 47.239Z" fill="#4B4B4B"/>


</svg>
