<svg width="123" height="59" viewBox="0 0 123 59" fill="none" xmlns="http://www.w3.org/2000/svg">
<path d="M89.9388 43.794C87.6191 48.2799 84.2416 52.1442 80.1308 55.0667C80.7893 54.8074 81.4491 54.5371 82.1145 54.2557C86.2421 52.51 92.2302 48.9556 98.5813 45.1855L100.152 44.2533C109.292 38.8349 123 29.5041 123 29.5041L122.994 29.4999H113.556C112.091 30.4372 101.358 37.2859 94.1397 41.3829C92.8355 42.123 91.5474 42.8659 90.2912 43.5908L90.2369 43.6221C90.1373 43.6795 90.0379 43.7369 89.9388 43.794Z M42.869 3.93316C42.2106 4.19246 41.5508 4.46274 40.8854 4.74414C36.7578 6.48986 30.7698 10.0443 24.4187 13.8143L22.8477 14.7465C13.7081 20.165 0 29.4957 0 29.4957L0.00603941 29.4999H9.44429C10.9092 28.5626 21.6419 21.714 28.8603 17.617C30.1645 16.8769 31.4526 16.1339 32.7088 15.409L32.7631 15.3777C32.8626 15.3203 32.9619 15.263 33.061 15.2059C35.3807 10.72 38.7582 6.85573 42.869 3.93316Z M60.8129 58.998C60.9273 58.9993 61.0417 58.9999 61.1564 58.9999C77.6648 58.9999 91.0474 45.793 91.0474 29.5015C91.0474 25.0465 90.0017 21.3862 88.21 17.5995C87.5684 16.999 82.8141 14.4347 82.8141 14.4347C82.8141 14.4347 78.971 12.2946 77.6571 11.771C82.5091 16.1711 85.5502 22.4858 85.5502 29.5015C85.5502 42.7968 74.6287 53.5749 61.1564 53.5749C61.0417 53.5749 60.9273 53.5741 60.8129 53.5726V58.998Z M62.1875 0.00193405C62.073 0.000652313 61.9586 3.05176e-05 61.8439 3.05176e-05C45.3355 3.05176e-05 31.9528 13.2069 31.9528 29.4985C31.9528 33.9534 32.9534 38.1776 34.745 41.9643C37.4688 43.5319 39.6923 44.7503 40.9841 45.3424C42.609 46.0872 44.0293 46.7053 45.3432 47.2289C40.4912 42.8289 37.45 36.5141 37.45 29.4985C37.45 16.2031 48.3716 5.42504 61.8439 5.42504C61.9586 5.42504 62.073 5.42582 62.1875 5.4274V0.00193405Z M62.1875 5.42966C64.621 5.42966 65.754 5.6028 68 5.99997C72.2562 6.75264 74.4929 7.87963 78.5 9.49997C84.7071 12.0099 87.8894 14.1001 93.6978 17.4351C101.566 21.953 113.557 29.4944 113.557 29.4944L122.992 29.5L123 29.4944C123 29.4944 109.292 20.1636 100.153 14.7451C98.4749 13.7506 96.9862 12.8386 95.5881 11.982C91.2129 9.30176 87.7245 7.16474 82.1148 4.74279C76.6176 2.36935 72.2877 1.03131 66.3104 0.334971C65.0018 0.182533 63.1699 0.0493058 62.1875 -3.05176e-05V5.42966Z M60.8128 53.5766C59.7633 53.5175 58.2954 53.4162 56.6953 53.2015C51.7307 52.5353 48.9274 51.7945 44.3279 49.8341C37.1221 46.7628 35.0694 45.0751 29.3026 41.5648C21.5505 36.8461 9.44077 29.5 9.44077 29.5H0.00810623L4.95881e-05 29.5056C4.95881e-05 29.5056 13.7082 38.8363 22.8478 44.2548C24.5254 45.2493 26.0141 46.1614 27.4122 47.0179C31.7875 49.6982 35.2759 51.8352 40.8855 54.2572C46.3827 56.6306 50.7126 57.9686 56.6899 58.665C57.9985 58.8174 59.8304 58.9506 60.8128 59V53.5766Z" fill="#4B4B4B"/>
<path d="" fill="#4B4B4B"/>
<path d="" fill="#4B4B4B"/>
<path d="" fill="#4B4B4B"/>
<path d="" fill="#4B4B4B"/>
<path d="" fill="#4B4B4B"/>
</svg>
